<?xml version="1.0" encoding="UTF-8"?>
<svg enable-background="new 0 0 440.617 435" viewBox="0 0 440.617 435" xmlns="http://www.w3.org/2000/svg">
 <path d="m266.5 361.5v72h-238.5v-189" fill="none" stroke="#000" stroke-linecap="round" stroke-width="3"/>
 <path d="m28 190.5v-189h238.5v72" fill="none" stroke="#000" stroke-linecap="round" stroke-width="3"/>
 <path transform="matrix(-.7071 .7071 -.7071 -.7071 608.74 182.85)" d="m164.68 115.68h203.65v203.65h-203.65z" fill="none" stroke="#000" stroke-width="3"/>
 <path d="m203.5 154.5 27-27-18-18-27 27-27 27 18 18z" fill="#fff" stroke="#000" stroke-width="3"/>
 <path d="m122.5 217.5h288" stroke="#000" stroke-width="3"/>
 <path d="m203.5 280.5 27 27-18 18-27-27-27-27 18-18z" fill="#fff" stroke="#000" stroke-width="3"/>
 <path d="m287.76 217.22a21.26 21.26 0 1 0 -42.52 0 21.26 21.26 0 1 0 42.52 0" fill="#fff" stroke="#000" stroke-width="2"/>
 <path d="m329.5 280.5 27-27 18 18-27 27-27 27-18-18z" fill="#fff" stroke="#000" stroke-width="3"/>
 <path d="m347.5 136.5 27 27-18 18-27-27-27-27 18-18z" fill="#fff" stroke="#000" stroke-width="3"/>
 <path d="m264.512,232-8.398-25.612h3.61l3.989,12.616c1.064,3.458 2.015,6.612 2.736,9.576h.076c.723-2.964 1.748-6.194 2.926-9.538l4.332-12.654h3.534l-9.157,25.612h-3.648z"/>
 <path d="m127 217.5a4.5 4.5 0 1 0 -9 0 4.5 4.5 0 1 0 9 0"/>
 <path d="m415 217.5a4.5 4.5 0 1 0 -9 0 4.5 4.5 0 1 0 9 0"/>
 <path d="m55 217.5a27 27 0 1 0 -54 0 27 27 0 1 0 54 0" fill="#fff" stroke="#000" stroke-width="2"/>
 <path d="m28 195v18" fill="#fff" stroke="#000" stroke-linecap="round" stroke-width="2"/>
 <path d="m37 204h-18" fill="#fff" stroke="#000" stroke-linecap="round" stroke-width="2"/>
 <path d="m19 235.5h18" fill="#fff" stroke="#000" stroke-linecap="round" stroke-width="2"/>
 <path d="m271 73.5a4.5 4.5 0 1 0 -9 0 4.5 4.5 0 1 0 9 0"/>
 <path d="m271 361.5a4.5 4.5 0 1 0 -9 0 4.5 4.5 0 1 0 9 0"/>
 <path d="m139.192,104.112c1.848-.378 4.536-.63 7.014-.63 3.906,0 6.468.756 8.232,2.352 1.386,1.218 2.226,3.15 2.226,5.376 0,3.696-2.394,6.174-5.334,7.182v.126c2.142.756 3.444,2.772 4.158,5.712 .924,3.948 1.596,6.678 2.142,7.77h-3.78c-.462-.798-1.092-3.234-1.848-6.762-.84-3.906-2.394-5.376-5.712-5.502h-3.444v12.264h-3.654v-27.888zm3.654,12.852h3.738c3.906,0 6.384-2.142 6.384-5.376 0-3.654-2.646-5.25-6.51-5.25-1.764,0-2.982.168-3.612.336v10.29z"/>
 <path d="m164.38 132.08h-0.049l-2.767 1.494-0.417-1.641 3.477-1.861h1.836v15.916h-2.081v-13.908z"/>
 <path d="m152.692,293.111c1.848-.378 4.536-.63 7.014-.63 3.906,0 6.468.757 8.232,2.353 1.386,1.218 2.226,3.149 2.226,5.375 0,3.697-2.394,6.175-5.334,7.183v.126c2.142.756 3.444,2.771 4.158,5.712 .924,3.948 1.596,6.679 2.142,7.771h-3.78c-.462-.799-1.092-3.234-1.848-6.763-.84-3.905-2.394-5.376-5.712-5.502h-3.444v12.264h-3.654v-27.889zm3.654,12.852h3.738c3.906,0 6.384-2.141 6.384-5.375 0-3.654-2.646-5.25-6.51-5.25-1.764,0-2.982.168-3.612.336v10.289z"/>
 <path d="m173.198,334.985v-1.322l1.689-1.641c4.064-3.868 5.925-5.926 5.925-8.325 0-1.616-.759-3.109-3.134-3.109-1.445,0-2.645.734-3.379,1.346l-.686-1.518c1.078-.906 2.669-1.616 4.505-1.616 3.404,0 4.848,2.351 4.848,4.628 0,2.938-2.13,5.313-5.485,8.546l-1.249,1.175v.049h7.125v1.788h-10.159z"/>
 <path d="m364.192,293.111c1.849-.378 4.536-.63 7.015-.63 3.905,0 6.467.757 8.231,2.353 1.386,1.218 2.226,3.149 2.226,5.375 0,3.697-2.394,6.175-5.334,7.183v.126c2.143.756 3.444,2.771 4.158,5.712 .924,3.948 1.596,6.679 2.143,7.771h-3.78c-.462-.799-1.093-3.234-1.849-6.763-.84-3.905-2.394-5.376-5.711-5.502h-3.444v12.264h-3.654v-27.889zm3.655,12.852h3.737c3.906,0 6.385-2.141 6.385-5.375 0-3.654-2.646-5.25-6.51-5.25-1.765,0-2.982.168-3.612.336v10.289z"/>
 <path d="m385.213,332.537c.611.367 2.008.979 3.525.979 2.742,0 3.624-1.738 3.6-3.084-.025-2.229-2.033-3.184-4.113-3.184h-1.2v-1.616h1.2c1.566,0 3.55-.808 3.55-2.694 0-1.272-.808-2.398-2.792-2.398-1.272,0-2.497.563-3.183,1.053l-.587-1.567c.856-.612 2.473-1.225 4.187-1.225 3.134,0 4.554,1.861 4.554,3.796 0,1.664-1.004,3.061-2.938,3.771v.049c1.959.368 3.551,1.837 3.551,4.065 0,2.546-2.008,4.774-5.804,4.774-1.788,0-3.354-.563-4.138-1.077l.588-1.642z"/>
 <path d="m359.691,104.112c1.849-.378 4.537-.63 7.015-.63 3.905,0 6.468.756 8.231,2.352 1.387,1.218 2.227,3.15 2.227,5.376 0,3.696-2.395,6.174-5.334,7.182v.126c2.143.756 3.443,2.772 4.158,5.712 .924,3.948 1.596,6.678 2.142,7.77h-3.78c-.462-.798-1.092-3.234-1.848-6.762-.84-3.906-2.395-5.376-5.712-5.502h-3.444v12.264h-3.654v-27.888zm3.655,12.852h3.738c3.906,0 6.384-2.142 6.384-5.376 0-3.654-2.646-5.25-6.51-5.25-1.765,0-2.981.168-3.612.336v10.29z"/>
 <path d="m381.887,134.135 1.689,2.522c.441.686.809,1.273 1.2,1.934h.073c.393-.686.783-1.297 1.2-1.934l1.641-2.522h2.351l-4.04,5.729 4.138,6.122h-2.448l-1.739-2.669c-.465-.686-.856-1.347-1.272-2.057h-.05c-.391.71-.808,1.347-1.248,2.057l-1.715,2.669h-2.375l4.213-6.048-4.017-5.803h2.399z"/>
 <path d="m194.5 325.5v-72"/>
 <path d="m194.5 249.97 2.032 4.974-2.032-1.18-2.032 1.18z"/>
 <path d="m194.5 325.5v-72" fill="none" stroke="#000" stroke-width="3"/>
 <path d="m194.5 242.91 6.098 14.925-6.098-3.542-6.097 3.542z"/>
 <path d="m280.615,61.766-2.659,8.056h-3.42l8.702-25.612h3.99l8.739,25.612h-3.534l-2.736-8.056h-9.082zm8.399-2.584-2.546-7.372c-.532-1.672-.911-3.192-1.292-4.674h-.113c-.343,1.482-.761,3.078-1.254,4.636l-2.509,7.41h7.714z"/>
 <path d="m424.467,205.582c1.443-.342 3.762-.57 6.042-.57 3.306,0 5.435.57 6.991,1.862 1.33.988 2.166,2.507 2.166,4.522 0,2.508-1.672,4.674-4.332,5.624v.113c2.433.57 5.283,2.584 5.283,6.385 0,2.204-.875,3.876-2.205,5.13-1.748,1.634-4.635,2.394-8.815,2.394-2.28,0-4.028-.151-5.13-.304v-25.156zm3.305,10.487h3.002c3.458,0 5.511-1.862 5.511-4.332 0-2.964-2.242-4.18-5.586-4.18-1.521,0-2.395.114-2.927.228v8.284zm0,12.237c.685.114 1.597.151 2.774.151 3.42,0 6.574-1.254 6.574-4.978 0-3.458-3.002-4.94-6.612-4.94h-2.736v9.767z"/>
 <path d="m110.844,230.016c-1.178.607-3.648,1.216-6.764,1.216-7.22,0-12.616-4.56-12.616-12.996 0-8.056 5.434-13.452 13.376-13.452 3.154,0 5.206.684 6.08,1.14l-.836,2.698c-1.216-.608-3.002-1.064-5.13-1.064-6.004,0-9.994,3.838-9.994,10.563 0,6.309 3.61,10.299 9.804,10.299 2.052,0 4.104-.418 5.434-1.064l.646,2.66z"/>
 <path d="m276.436,362.536c2.053-.304 4.446-.531 7.068-.531 4.75,0 8.133,1.063 10.374,3.153 2.317,2.091 3.647,5.093 3.647,9.234 0,4.18-1.33,7.6-3.686,9.956-2.432,2.394-6.384,3.686-11.361,3.686-2.395,0-4.332-.075-6.043-.304v-25.194zm3.343,22.687c.836.152 2.053.152 3.345.152 7.067.038 10.905-3.952 10.905-10.868 .039-6.118-3.381-9.88-10.373-9.88-1.711,0-3.002.151-3.877.342v20.254z"/>
</svg>
